<svg width="1440" height="1099" viewBox="0 0 1440 1099" fill="none" xmlns="http://www.w3.org/2000/svg">
<path d="M1350.74 1179.88C1023.03 1643.88 395.404 1764.39 -51.1001 1449.04C-497.605 1133.68 -593.898 501.885 -266.189 37.8857C61.5204 -426.114 1022.25 -1018.25 1468.75 -702.899C1915.26 -387.546 1678.46 715.872 1350.74 1179.88Z" fill="#E30512"/>
<path d="M1305.07 1122.48C1000.68 1553.47 417.705 1665.39 2.97311 1372.48C-411.759 1079.57 -501.21 492.725 -196.814 61.7352C107.581 -369.255 999.947 -919.263 1414.69 -626.344C1829.42 -333.426 1609.47 691.486 1305.07 1122.48Z" fill="#3B0073"/>
<path d="M1259.4 1065.07C978.315 1463.05 439.999 1566.41 57.0337 1295.93C-325.932 1025.45 -408.529 483.561 -127.447 85.5805C153.634 -312.4 977.641 -820.277 1360.61 -549.794C1743.59 -279.311 1540.47 667.096 1259.4 1065.07Z" fill="#E30512"/>
<path d="M1213.73 1007.67C955.972 1372.63 462.302 1467.42 111.102 1219.38C-240.098 971.335 -315.843 474.388 -58.0801 109.425C199.683 -255.538 955.354 -721.289 1306.55 -473.247C1657.75 -225.204 1471.5 642.7 1213.73 1007.67Z" fill="#3B0073"/>
<path d="M1168.06 950.27C933.61 1282.22 484.598 1368.44 165.164 1142.83C-154.27 917.223 -223.161 465.229 11.2883 133.276C245.737 -198.677 933.048 -622.298 1252.48 -396.69C1571.92 -171.083 1402.51 618.316 1168.06 950.27Z" fill="#E30512"/>
<path d="M1122.39 892.867C911.251 1191.81 506.896 1269.44 219.235 1066.27C-68.4267 863.107 -130.47 456.062 80.6603 157.126C291.79 -141.81 910.754 -523.302 1198.42 -320.135C1486.08 -116.968 1333.52 593.93 1122.39 892.867Z" fill="#3B0073"/>
<path d="M1076.71 835.458C888.898 1101.38 529.196 1170.45 273.293 989.714C17.3904 808.977 -37.7983 446.886 150.018 180.96C337.834 -84.9669 888.443 -424.335 1144.35 -243.598C1400.25 -62.8616 1264.54 569.525 1076.71 835.458Z" fill="#E30512"/>
<path d="M1031.05 778.062C866.544 1010.98 551.493 1071.47 327.363 913.17C103.234 754.874 54.892 437.732 219.394 204.816C383.897 -28.1013 866.153 -325.334 1090.28 -167.037C1314.41 -8.74089 1195.55 545.145 1031.05 778.062Z" fill="#3B0073"/>
<path d="M985.37 720.66C844.186 920.56 573.789 972.484 381.425 836.622C189.061 700.761 147.574 428.574 288.762 228.667C429.951 28.7595 843.847 -226.342 1036.21 -90.4811C1228.58 45.3801 1126.55 520.761 985.37 720.66Z" fill="#E30512"/>
<path d="M939.703 663.257C821.833 830.147 596.087 873.493 435.489 760.067C274.89 646.641 240.25 419.403 358.125 252.506C476 85.6081 821.543 -127.358 982.142 -13.9319C1142.74 99.494 1057.57 496.367 939.703 663.257Z" fill="#3B0073"/>
<path d="M894.042 605.853C799.486 739.733 618.404 774.5 489.571 683.509C360.738 592.519 332.958 410.227 427.509 276.354C522.059 142.481 799.259 -28.3763 928.091 62.6145C1056.92 153.605 988.598 471.973 894.042 605.853Z" fill="#E30512"/>
<path d="M848.373 548.45C777.136 649.314 640.699 675.511 543.64 606.96C446.58 538.41 425.647 401.067 496.884 300.204C568.121 199.34 776.967 70.619 874.027 139.169C971.087 207.72 919.61 447.587 848.373 548.45Z" fill="#3B0073"/>
</svg>
