<svg width="135" height="282" viewBox="0 0 135 282" fill="none" xmlns="http://www.w3.org/2000/svg">
<path fill-rule="evenodd" clip-rule="evenodd" d="M67.4341 21.3176C71.3422 14.5259 75.3367 7.58392 73.5066 -5.5811L73.5045 -5.58401C72.239 -14.6873 68.2986 -25.7097 64.3826 -36.6642C62.55 -41.7908 60.7226 -46.9025 59.1772 -51.7957L74.2272 -85.7986C75.3483 -85.6353 76.4772 -85.4359 77.6041 -85.2088C78.1509 -85.0985 78.7011 -84.986 79.2533 -84.8731C88.7432 -82.9322 98.8398 -80.8673 103.305 -87.7302L115.168 -71.3342C109.71 -68.6496 104.252 -65.9618 98.7946 -63.2744C96.6574 -62.2219 94.5203 -61.1695 92.3833 -60.1173C85.9958 -56.9708 79.3145 -53.0565 80.1746 -40.2904C80.6181 -33.7044 83.0486 -25.5129 85.4745 -17.3371C88.066 -8.60316 90.6523 0.112985 90.8053 6.83529C90.9674 13.9369 88.3928 18.0114 85.8519 22.0326C82.6315 27.1292 79.4652 32.14 81.9935 43.1195C85.4135 57.9694 97.4631 75.4501 108.121 89.817C118.78 104.184 130.872 121.083 135.058 136.425C136.798 142.804 136.831 147.819 136.863 152.846C136.878 155.123 136.892 157.402 137.066 159.811C137.79 169.852 141.509 182.652 147.306 195.598L138.296 215.957C134.94 209.86 132.257 203.252 130.518 197.371C128.178 189.455 127.178 182.434 126.18 175.432C125.919 173.598 125.658 171.766 125.373 169.919C124 161.02 121.872 151.135 116.946 140.536C110.668 127.025 101.373 115.367 92.1221 103.762C82.4128 91.5836 72.7506 79.4641 66.6712 65.3231C58.5851 46.5145 60.949 33.3612 65.3031 25.1257C65.9852 23.8356 66.7082 22.5792 67.4341 21.3176ZM156.559 174.704C158.113 162.705 153.448 143.146 144.28 124.187C140.133 115.611 135.215 107.271 130.295 98.9261L130.293 98.9227C128.156 95.2987 126.019 91.6739 123.944 88.0286C117.089 75.9854 110.558 62.7748 108.384 51.9852C106.968 44.9521 107.558 39.7841 108.151 34.5976C108.654 30.1933 109.158 25.7756 108.437 20.1911C107.492 12.8733 104.517 4.06005 101.554 -4.71527L101.554 -4.71559C98.1564 -14.782 94.7753 -24.7985 94.4936 -32.4506C94.0372 -44.8791 101.837 -47.0699 108.995 -48.8622C115.035 -50.3746 121.222 -52.9498 122.058 -61.8229L138.723 -38.7894C139.939 -35.2328 141.155 -31.6754 142.371 -28.118C143.586 -24.5644 144.801 -21.0108 146.017 -17.4579C148.858 -9.15473 151.736 -0.710387 152.979 6.59861C155.672 22.4067 150.164 30.4232 141.703 31.466C140.122 31.6616 138.44 31.6501 136.758 31.6386C134.362 31.6223 131.968 31.606 129.872 32.1877C126.306 33.184 123.587 36.2108 124.047 42.711C124.592 50.4255 129.547 61.5667 135.305 71.1905C139.739 78.6033 144.669 85.4227 149.593 92.2348C151.06 94.2641 152.526 96.2926 153.979 98.3361C160.306 107.236 166.679 116.956 170.938 126.897C172.18 129.795 173.189 132.585 174.011 135.275L156.562 174.704L156.559 174.704ZM109.261 173.918C109.011 171.183 108.944 168.615 108.876 166.05C108.775 162.212 108.674 158.379 107.962 153.996C106.776 146.682 103.342 136.969 97.7674 129.461C94.1291 124.56 90.3691 121.589 86.6038 118.614C85.1048 117.43 83.6049 116.245 82.1116 114.937C69.2582 103.678 55.6532 80.5542 51.6617 63.1918C49.921 55.6129 49.8733 49.3795 49.8266 43.2615L49.8263 43.2256C49.7815 37.099 49.702 30.8128 47.8904 23.172C46.0789 15.5311 42.2234 6.18214 36.8111 -1.27058L0.000732422 -1.27057C0.65799 -0.161727 2.60144 1.76109 5.19489 4.32694L5.19507 4.32712C13.7129 12.7544 29.2418 28.1182 29.2418 44.363C30.8214 50.375 31.054 55.4051 31.1549 60.2032C31.1634 60.6086 31.1712 61.0136 31.179 61.419C31.2632 65.8115 31.3481 70.2384 32.4023 75.477C34.053 83.6831 38.1367 93.661 43.5461 102.698C48.9556 111.736 55.6273 119.73 61.7499 124.507C64.6356 126.76 67.3545 128.292 70.0766 129.826L70.0775 129.826C71.8186 130.808 73.5612 131.79 75.3496 132.961C79.9343 135.966 85.2726 140.769 89.4794 147.734C94.607 156.226 96.3751 165.005 97.0578 172.015C97.0761 172.202 97.0948 172.606 97.1228 173.21C97.549 182.398 100.121 237.869 135.922 281.5L135.918 241.369C123.497 229.995 110.271 184.951 109.263 173.921L109.261 173.918Z" fill="#E21E26"/>
</svg>
