<svg width="560" height="424" viewBox="0 0 560 424" fill="none" xmlns="http://www.w3.org/2000/svg">
<path d="M-78.1792 237.386C-85.9798 262.61 -79.8053 289.297 -70.8939 313.447C-62.9372 335.023 -51.6709 357.011 -31.1278 368.058C-18.9327 374.618 -4.45961 376.675 9.74942 376.275C26.3986 375.807 43.0918 372.088 58.5411 365.406C72.0096 359.582 84.6626 351.404 94.3952 340.527C104.07 329.723 110.594 316.558 114.774 302.982C127 263.301 118.253 218.077 89.3905 189.507C35.313 135.969 -55.5033 164.099 -78.1792 237.386Z" fill="#E30512"/>
<path d="M272.74 177.242C275.312 186.228 281.06 193.969 287.818 200.459C295.629 207.954 306.375 214.283 317.401 211.737C323.199 210.399 328.244 206.755 332.636 202.731C341.872 194.272 349.376 182.517 347.941 170.594C345.683 151.832 324.63 127.659 303.256 130.954C281.966 134.235 267.256 158.096 272.74 177.242Z" fill="#E30512"/>
<path d="M429.571 125.249C433.268 122.965 435.818 119.136 437.03 115.079C439.195 107.852 437.147 99.7919 431.99 94.5111C428.359 90.7903 422.829 88.3908 417.558 89.7619C407.018 92.5041 401.505 107.66 403.836 116.907C406.277 126.581 421.044 130.515 429.563 125.244" fill="#E30512"/>
<path d="M115.614 124.455C112.194 135.501 114.901 147.197 118.804 157.771C122.289 167.223 127.225 176.851 136.225 181.691C141.569 184.566 147.907 185.467 154.128 185.291C161.422 185.087 168.737 183.456 175.503 180.527C181.404 177.973 186.947 174.393 191.208 169.629C195.445 164.893 198.307 159.127 200.138 153.178C205.495 135.795 201.661 115.986 189.016 103.472C165.326 80.0222 125.547 92.3421 115.612 124.449" fill="#E30512"/>
<path d="M422.485 11.2833C426.182 9.0001 428.732 5.17036 429.944 1.11399C432.11 -6.11313 430.061 -14.1734 424.905 -19.4542C421.273 -23.175 415.743 -25.5745 410.472 -24.2034C399.932 -21.4612 394.419 -6.3054 396.75 2.94186C399.191 12.6156 413.958 16.5494 422.477 11.2791" fill="#E30512"/>
<path d="M161.245 418.842C168.888 421.001 178.021 417.021 182.053 410.074C183.922 406.852 184.782 403.032 184.018 399.512C181.616 388.466 162.798 383.238 154.514 392.118C146.388 400.831 150.018 415.674 161.247 418.849" fill="#E30512"/>
<path d="M303.293 64.3427C307.814 65.6204 313.22 63.2603 315.605 59.1509C316.71 57.2438 317.217 54.9856 316.768 52.901C315.348 46.3643 304.206 43.2707 299.307 48.526C294.5 53.6839 296.652 62.4652 303.293 64.3427Z" fill="#E30512"/>
<path d="M251.717 44.7555C256.239 46.0332 261.645 43.6731 264.03 39.5637C265.14 37.6545 265.642 35.3984 265.192 33.3138C263.772 26.7771 252.636 23.6815 247.732 28.9388C242.924 34.0967 245.071 42.88 251.717 44.7555Z" fill="#E30512"/>
<path d="M546.514 92.6682C550.272 93.7305 554.768 91.7736 556.755 88.3501C557.679 86.7666 558.097 84.8841 557.72 83.15C556.539 77.712 547.273 75.1403 543.204 79.5089C539.203 83.7943 540.994 91.1014 546.518 92.66" fill="#E30512"/>
</svg>
