<svg width="375" height="562" viewBox="0 0 375 562" fill="none" xmlns="http://www.w3.org/2000/svg">
<path d="M424.436 309.789C424.436 449.078 315.671 562 181.5 562C47.3288 562 -61.4365 449.083 -61.4365 309.789C-61.4365 170.495 47.3289 -84 181.5 -84C315.671 -84 424.436 170.5 424.436 309.789Z" fill="#E30512"/>
<path d="M384.176 298.157C384.176 414.561 293.639 508.929 181.957 508.929C70.2753 508.929 -20.2608 414.566 -20.2608 298.157C-20.2608 181.747 70.2753 -30.9292 181.957 -30.9292C293.639 -30.9292 384.176 181.752 384.176 298.157Z" fill="#3B0073"/>
<path d="M344.83 286.529C344.83 380.049 271.912 455.858 181.957 455.858C92.0034 455.858 19.0849 380.044 19.0849 286.529C19.085 193.014 92.0034 22.1416 181.957 22.1416C271.912 22.1416 344.83 193.009 344.83 286.529Z" fill="#E30512"/>
<path d="M304.569 274.696C304.569 344.932 249.673 401.873 181.958 401.873C114.242 401.872 59.3457 344.932 59.3457 274.696C59.3457 204.46 114.242 76.1274 181.958 76.1274C249.673 76.1274 304.569 204.46 304.569 274.696Z" fill="#3B0073"/>
</svg>
