<svg width="240" height="512" viewBox="0 0 481 1024" fill="none" xmlns="http://www.w3.org/2000/svg">
<path fill-rule="evenodd" clip-rule="evenodd" d="M388.844 1062.81C403.424 1107.32 429.836 1153.46 480.568 1202.56L460.752 1221.96C407.524 1170.45 379.013 1121.18 363.188 1072.87C347.516 1025.02 344.488 978.612 341.566 933.826L341.529 933.262C338.575 887.993 335.675 844.362 321.007 799.585C306.427 755.074 280.014 708.934 229.283 659.841C128.343 562.16 33.9106 552.103 -63.6099 541.787L-63.8267 541.764C-162.383 531.338 -264.025 520.586 -370.925 417.138C-424.152 365.629 -452.663 316.354 -468.488 268.043C-484.161 220.198 -487.189 173.79 -490.111 129.004L-490.148 128.439C-493.102 83.1709 -496.002 39.5392 -510.669 -5.23733C-525.25 -49.7482 -551.662 -95.8884 -602.394 -144.982L-582.578 -164.387C-529.35 -112.878 -500.839 -63.6031 -485.014 -15.2917C-469.342 32.5529 -466.314 78.9611 -463.391 123.747L-463.354 124.312C-460.401 169.58 -457.5 213.212 -442.833 257.988C-428.253 302.499 -401.84 348.639 -351.109 397.733C-250.169 495.413 -155.736 505.47 -58.2158 515.787L-57.999 515.81C40.5574 526.235 142.199 536.987 249.099 640.435C302.326 691.944 330.837 741.219 346.663 789.531C362.335 837.376 365.363 883.784 368.285 928.57L368.322 929.134C371.276 974.403 374.176 1018.03 388.844 1062.81ZM345.054 1100.74C359.634 1145.25 386.046 1191.39 436.778 1240.49L416.962 1259.89C363.734 1208.38 335.223 1159.11 319.398 1110.8C303.726 1062.95 300.698 1016.54 297.776 971.758L297.739 971.194C294.786 925.925 291.886 882.293 277.219 837.516C262.64 793.005 236.228 746.864 185.498 697.769C84.5583 600.089 -9.87403 590.032 -107.395 579.716L-107.613 579.694C-206.17 569.268 -307.812 558.517 -414.715 455.071C-467.943 403.561 -496.454 354.285 -512.28 305.974C-527.953 258.128 -530.98 211.719 -533.902 166.932L-533.939 166.37C-536.892 121.101 -539.791 77.4697 -554.458 32.693C-569.037 -11.8181 -595.448 -57.9587 -646.179 -107.053L-626.362 -126.458C-573.136 -74.9483 -544.626 -25.6724 -528.802 22.6391C-513.131 70.4828 -510.104 116.89 -507.182 161.675L-507.145 162.243C-504.192 207.511 -501.292 251.143 -486.624 295.919C-472.044 340.43 -445.631 386.571 -394.899 435.666C-293.956 533.344 -199.522 543.4 -102.001 553.716L-101.787 553.739C-3.2289 564.164 98.4134 574.915 205.314 678.364C258.54 729.874 287.051 779.15 302.875 827.462C318.546 875.307 321.574 921.714 324.496 966.5L324.533 967.067C327.486 1012.34 330.387 1055.97 345.054 1100.74ZM301.264 1138.68C315.844 1183.19 342.257 1229.33 392.988 1278.42L373.172 1297.83C319.945 1246.32 291.434 1197.04 275.608 1148.73C259.936 1100.89 256.908 1054.48 253.986 1009.69L253.949 1009.13C250.995 963.859 248.095 920.228 233.427 875.451C218.847 830.94 192.435 784.8 141.703 735.707C40.7631 638.026 -53.6693 627.969 -151.19 617.653L-151.406 617.63C-249.963 607.204 -351.604 596.452 -458.505 493.004C-511.732 441.495 -540.243 392.22 -556.068 343.909C-571.741 296.064 -574.769 249.656 -577.691 204.87L-577.728 204.305C-580.682 159.037 -583.582 115.405 -598.249 70.6286C-612.83 26.1177 -639.242 -20.0225 -689.974 -69.116L-670.158 -88.5212C-616.93 -37.0124 -588.419 12.2629 -572.594 60.5743C-556.921 108.419 -553.893 154.827 -550.971 199.613L-550.934 200.178C-547.98 245.446 -545.08 289.078 -530.413 333.854C-515.832 378.365 -489.42 424.505 -438.688 473.599C-337.749 571.279 -243.316 581.336 -145.796 591.653L-145.579 591.675C-47.0228 602.101 54.6189 612.853 161.519 716.301C214.747 767.81 243.258 817.085 259.083 865.397C274.755 913.242 277.783 959.65 280.705 1004.44L280.742 1005C283.696 1050.27 286.597 1093.9 301.264 1138.68ZM257.479 1176.61C272.06 1221.12 298.472 1267.26 349.204 1316.35L329.387 1335.76C276.16 1284.25 247.649 1234.97 231.824 1186.66C216.151 1138.81 213.124 1092.41 210.202 1047.62L210.165 1047.06C207.211 1001.79 204.311 958.155 189.645 913.378C175.065 868.867 148.654 822.726 97.9235 773.631C-3.01619 675.951 -97.4486 665.894 -194.969 655.578L-195.185 655.555C-293.742 645.129 -395.384 634.377 -502.284 530.929C-555.511 479.42 -584.022 430.145 -599.848 381.834C-615.52 333.989 -618.548 287.581 -621.47 242.795L-621.507 242.23C-624.461 196.962 -627.361 153.33 -642.029 108.554C-656.609 64.0427 -683.021 17.9024 -733.753 -31.191L-713.937 -50.5963C-660.709 0.91247 -632.198 50.1878 -616.373 98.4992C-600.701 146.344 -597.673 192.752 -594.751 237.538L-594.714 238.103C-591.76 283.371 -588.859 327.003 -574.192 371.779C-559.612 416.29 -533.199 462.43 -482.468 511.524C-381.528 609.204 -287.095 619.261 -189.575 629.577L-189.358 629.6C-90.802 640.026 10.8397 650.778 117.74 754.226C170.966 805.736 199.476 855.012 215.3 903.324C230.972 951.169 234 997.577 236.921 1042.36L236.958 1042.93C239.912 1088.2 242.812 1131.83 257.479 1176.61ZM213.689 1214.54C228.27 1259.05 254.682 1305.19 305.414 1354.28L285.598 1373.69C232.37 1322.18 203.859 1272.9 188.034 1224.59C172.361 1176.75 169.334 1130.34 166.412 1085.55L166.375 1084.99C163.421 1039.72 160.522 996.088 145.855 951.311C131.275 906.8 104.864 860.659 54.1336 811.564C-46.8061 713.884 -141.238 703.827 -238.759 693.511L-238.975 693.488C-337.532 683.062 -439.174 672.31 -546.074 568.862C-599.301 517.353 -627.812 468.078 -643.638 419.767C-659.31 371.922 -662.338 325.514 -665.26 280.728L-665.297 280.163C-668.251 234.895 -671.151 191.263 -685.819 146.486C-700.399 101.976 -726.811 55.8354 -777.543 6.74191L-757.727 -12.6633C-704.499 38.8454 -675.988 88.1208 -660.163 136.432C-644.491 184.277 -641.463 230.685 -638.54 275.47L-638.504 276.036C-635.55 321.304 -632.649 364.936 -617.982 409.712C-603.402 454.223 -576.989 500.363 -526.258 549.457C-425.318 647.137 -330.885 657.194 -233.365 667.51L-233.148 667.533C-134.592 677.959 -32.9503 688.711 73.9499 792.159C127.176 843.669 155.686 892.945 171.511 941.257C187.182 989.102 190.21 1035.51 193.131 1080.3L193.168 1080.86C196.122 1126.13 199.022 1169.76 213.689 1214.54ZM169.899 1252.47C184.48 1296.98 210.892 1343.12 261.624 1392.22L241.808 1411.62C188.58 1360.11 160.069 1310.84 144.244 1262.53C128.572 1214.68 125.543 1168.27 122.621 1123.49L122.584 1122.92C119.63 1077.65 116.73 1034.02 102.063 989.246C87.4826 944.735 61.0701 898.595 10.3385 849.502C-90.6013 751.821 -185.034 741.764 -282.554 731.448L-282.771 731.425C-381.327 720.999 -482.969 710.247 -589.869 606.799C-643.096 555.29 -671.608 506.015 -687.433 457.704C-703.105 409.859 -706.133 363.451 -709.055 318.665L-709.092 318.1C-712.046 272.832 -714.946 229.2 -729.614 184.424C-744.194 139.913 -770.607 93.7724 -821.338 44.679L-801.522 25.2737C-748.295 76.7825 -719.784 126.058 -703.958 174.369C-688.286 222.214 -685.258 268.622 -682.336 313.408L-682.299 313.973C-679.345 359.241 -676.445 402.873 -661.777 447.649C-647.197 492.16 -620.784 538.3 -570.053 587.394C-469.113 685.074 -374.681 695.131 -277.16 705.447L-276.944 705.47C-178.387 715.896 -76.7455 726.648 30.1547 830.096C83.3822 881.605 111.893 930.88 127.718 979.192C143.391 1027.04 146.419 1073.45 149.341 1118.23L149.378 1118.8C152.332 1164.06 155.232 1207.7 169.899 1252.47ZM126.116 1290.4C140.696 1334.91 167.108 1381.05 217.839 1430.15L198.023 1449.55C144.795 1398.04 116.285 1348.77 100.46 1300.45C84.7882 1252.61 81.7607 1206.2 78.8393 1161.41L78.8025 1160.85C75.8492 1115.58 72.9495 1071.95 58.2827 1027.17C43.7029 982.66 17.2908 936.52 -33.4408 887.426C-134.381 789.746 -228.813 779.689 -326.334 769.373L-326.55 769.35C-425.106 758.924 -526.748 748.172 -633.648 644.724C-686.876 593.215 -715.387 543.94 -731.212 495.629C-746.884 447.784 -749.912 401.376 -752.835 356.59L-752.871 356.025C-755.825 310.757 -758.726 267.125 -773.393 222.348C-787.973 177.838 -814.386 131.697 -865.117 82.6038L-845.301 63.1986C-792.074 114.707 -763.563 163.983 -747.737 212.294C-732.065 260.139 -729.037 306.547 -726.115 351.332L-726.078 351.897C-723.124 397.166 -720.224 440.798 -705.557 485.574C-690.976 530.085 -664.564 576.225 -613.832 625.319C-512.892 722.999 -418.46 733.056 -320.939 743.372L-320.723 743.395C-222.166 753.821 -120.525 764.573 -13.6247 868.021C39.6028 919.53 68.1136 968.806 83.9383 1017.12C99.6102 1064.96 102.637 1111.37 105.559 1156.16L105.596 1156.72C108.549 1201.99 111.449 1245.62 126.116 1290.4ZM82.3249 1328.33C96.9052 1372.84 123.318 1418.98 174.049 1468.08L154.233 1487.48C101.006 1435.97 72.4945 1386.7 56.6694 1338.39C40.9968 1290.54 37.9691 1244.13 35.0471 1199.35L35.0105 1198.78C32.0569 1153.52 29.1571 1109.88 14.4905 1065.11C-0.0891801 1020.59 -26.5007 974.454 -77.231 925.359C-178.171 827.679 -272.604 817.623 -370.125 807.307L-370.34 807.285C-468.898 796.859 -570.54 786.108 -677.438 682.657C-730.666 631.148 -759.177 581.873 -775.002 533.561C-790.674 485.716 -793.702 439.307 -796.624 394.521L-796.661 393.957C-799.614 348.689 -802.514 305.057 -817.181 260.28C-831.76 215.768 -858.172 169.627 -908.902 120.533L-889.086 101.128C-835.86 152.638 -807.35 201.914 -791.525 250.226C-775.854 298.07 -772.826 344.478 -769.904 389.263L-769.867 389.83C-766.914 435.099 -764.014 478.731 -749.346 523.507C-734.766 568.018 -708.354 614.158 -657.622 663.252C-556.685 760.934 -462.253 770.991 -364.731 781.307L-364.513 781.33C-265.957 791.755 -164.314 802.506 -57.4147 905.954C-4.18851 957.464 24.3216 1006.74 40.146 1055.05C55.8174 1102.9 58.8452 1149.3 61.7669 1194.09L61.8039 1194.66C64.7574 1239.93 67.6577 1283.56 82.3249 1328.33Z" fill="#E21F26"/>
</svg>
