<svg width="565" height="1160" viewBox="0 0 565 360" fill="none" xmlns="http://www.w3.org/2000/svg">
<style type="text/css">
	.st0{fill:#E21E26;}
	.st1{fill-rule:evenodd;clip-rule:evenodd;fill:#E21E26;}
</style>
<path class="st0" d="M-68.5,322.4C-82.3,349-76,395.5-51.3,442.7c16,30.6,38.6,60.7,58.4,91.1c19.8,30.4,37.5,63.3,39.4,88.7
	c2.3,30.7-18.8,44-20.2,72.3c-1.8,36.6,29.4,93,22.5,125.8c-6,28.5-38.4,30.1-68.1,31.1c-25,0.8-51.3,4-60.2,23.8l-52-59.6
	c-5.2-17.2-10.5-34.5-15.7-51.7c-6.1-20.1-12.3-40.6-12.7-57.7c-0.8-37.1,26.2-53,60.5-51.7c15.6,0.6,32.8,4.2,47.6,3.5
	s27.6-6.4,29.8-21.4c2.7-17.8-10.1-45.3-27-69.7s-37.7-46.9-57.4-69.9c-19.6-23-38.9-47.9-49.7-72.3c-3.1-7.1-5.4-13.9-7-20.4
	L-68.5,322.4L-68.5,322.4z"/>
<path class="st1" d="M102.1,226c-1.1,6-1.8,12.3-1.8,19.2c0.2,20,9,47.4,29.4,70.2c13.3,14.8,28.6,24.6,43.9,34.4
	c6.1,3.9,12.2,7.8,18.2,12c51.4,36.3,97.7,104.5,103.5,152.5c2.5,21-1.8,37.5-6,53.7v0.1c-4.3,16.3-8.5,33-5.7,54.1
	c0.2,1.6,0.4,3.6,0.7,5.9c3,28,11.2,103.3,86.2,127h157.2c-140.8-29.2-141.6-139.9-141.8-171.9c0-3.7,0-6.4-0.3-7.7
	c-2.9-16.7-0.3-30.2,2.7-42.9c0.3-1.1,0.5-2.2,0.8-3.2c2.8-11.7,5.7-23.5,4.6-37.9c-1.7-22.6-13.3-51.1-31.8-77.8
	s-43.6-51.2-68.5-67c-11.7-7.4-23.2-12.9-34.8-18.3c-7.4-3.5-14.7-7-22.2-11c-19.1-10.3-40.3-25.7-54.8-46.3
	c-17.4-24.9-17.4-48.7-17.4-67.6V203c0-30.1-6-43.1-31.5-67.7c-0.2-0.2-0.4-0.4-0.5-0.6c-11.3-12.8-24.4-21.3-37.4-29.8
	c-5.2-3.4-10.4-6.8-15.5-10.5C35.2,62.8-3.9,3.9-8.6-37.3c-2-18,1.8-32.2,5.6-46.1v-0.1c3.8-13.9,7.5-28.2,5.3-46.4
	C2.1-131.3,2-133,1.8-135c-2.4-24.1-8.8-88.8-73.1-109.7l-135-1.2C-85.7-219.7-85.8-124.7-85.8-97.2c0,3.2,0,5.5,0.2,6.6
	c2.4,14.4,0.1,25.9-2.6,36.8c-0.2,0.9-0.5,1.8-0.7,2.8c-2.5,10-5,20.1-4.2,32.5c1.3,19.4,11.1,44,26.7,67c15.7,23,37.1,44.3,58.4,58
	c10,6.5,19.9,11.2,29.7,16c6.3,3,12.6,6.1,19,9.6c16.3,9,34.4,22.4,46.7,40.1C100.7,191.8,103.1,210.6,102.1,226z"/>
<path class="st0" d="M149.3,768.6c1.1-36.5,29.4-49.5,52-66.3c22.5-16.8,40.2-45.7,19.8-92c-30-68-119.3-124.3-153.2-192.9
	c-13-26.2-15.3-49.7-15.1-70.5c0.1-20.8,2.2-40.7-3.3-64.7C46.2,268,2.6,197.7-6.9,182.4l-11.7,96.5c15,32,21.8,62.7,18.4,85.9
	c-2.6,17.8-10.9,31.9-6.7,54.1c7.1,36.7,44.6,80.4,78.1,117.7s70.5,82.3,74.8,117.6c5.7,46.6-49.2,41.9-57.9,78.7
	c-7,29.7,17.7,80.4,12.8,111.8c-4.6,29.4-33.7,35.4-61.1,39.8c-32.6,5.2-65.2,10.4-97.8,15.6l37,42.4C2.4,928,44.6,939,83,947.9
	c4.3,1,8.7,2,13.1,2.8l81.3-70.8C167.7,842.9,148.3,799.8,149.3,768.6"/>
</svg>
