<svg width="335" height="500" version="1.1" xmlns="http://www.w3.org/2000/svg" xmlns:xlink="http://www.w3.org/1999/xlink" x="0px" y="0px"
	 viewBox="0 0 127.5 208.1" style="enable-background:new 0 0 127.5 208.1;" xml:space="preserve">
<style type="text/css">
	.st0{fill:#E21E26;}
	.st1{fill-rule:evenodd;clip-rule:evenodd;fill:#E21E26;}
</style>
<path class="st0" d="M-24,117.3c-4.9,9.6-2.7,26.3,6.2,43.2c5.7,11,13.9,21.8,20.9,32.7c7.1,10.9,13.5,22.7,14.1,31.9
	c0.8,11-6.7,15.8-7.2,26c-0.6,13.1,10.6,33.4,8.1,45.2C16,306.4,4.3,306.9-6.3,307.3c-9,0.3-18.4,1.4-21.6,8.6l-18.7-21.4
	c-1.9-6.2-3.8-12.4-5.6-18.6c-2.2-7.2-4.4-14.6-4.5-20.7c-0.3-13.3,9.4-19,21.7-18.6c5.6,0.2,11.8,1.5,17.1,1.3
	c5.3-0.3,9.9-2.3,10.7-7.7c1-6.4-3.6-16.3-9.7-25c-6.1-8.8-13.6-16.8-20.6-25.1c-7-8.3-14-17.2-17.8-26c-1.1-2.6-1.9-5-2.5-7.3
	L-24,117.3L-24,117.3z"/>
<path class="st1" d="M55,81.6c-0.5,2.1-1,4.2-1.3,6.5l0,0c-1.1,9.2,0.5,20.2,6.3,32.6l-0.9-1c1.2,2.8,1.7,6,1.4,9.1
	c-0.6,5.8,0,13.3,5.4,21c4.4,6.3,11,11.1,16.9,14.3c2.3,1.2,4.6,2.3,6.8,3.4c3.5,1.7,7.1,3.4,10.7,5.6c7.7,4.9,15.4,12.4,21.1,20.6
	c5.7,8.2,9.3,17,9.8,24c0.3,4.4-0.5,8.1-1.4,11.7c-0.1,0.3-0.2,0.7-0.2,1c-0.9,3.9-1.7,8.1-0.8,13.2c0.1,0.4,0.1,1.2,0.1,2.4
	c0.1,9.9,0.3,44,43.7,53h-48.5c-23.1-7.3-25.6-30.5-26.6-39.1c-0.1-0.7-0.1-1.3-0.2-1.8c-0.9-6.5,0.4-11.7,1.7-16.7l0,0
	c1.3-5,2.6-10.1,1.9-16.6c-1.8-14.8-16.1-35.8-31.9-47c-1.8-1.3-3.7-2.5-5.6-3.7c-4.7-3-9.4-6-13.5-10.6c-6.3-7-9-15.5-9.1-21.6
	c0-3.7,0.7-6.8,1.4-10c0.5-2.1,1-4.2,1.2-6.5l0,0c1-9.2-0.7-21.7-6.6-34l0.7,0.8c-0.8-2.4-1.1-5-0.8-7.6c0.7-5.8,0.2-13.3-5.2-21.1
	C27.1,57,20.6,52.2,14.8,49c-2.3-1.3-4.5-2.3-6.8-3.4c-3.5-1.7-7.1-3.4-10.7-5.7C-10.3,34.9-18,27.3-23.6,19
	c-5.6-8.3-9.1-17.1-9.6-24.1c-0.3-4.4,0.6-8.1,1.5-11.7c0.1-0.3,0.2-0.7,0.2-1c1-3.9,1.8-8.1,0.9-13.2c-0.1-0.4-0.1-1.2-0.1-2.4
	c0-9.9,0.1-44-43.2-53.4l48.5,0.4C-2.3-78.8,0-55.6,0.9-46.9C0.9-46.2,1-45.6,1-45.1c0.8,6.5-0.5,11.7-1.9,16.7l0,0
	c-1.4,5-2.7,10.1-2,16.5C-1.2,3,12.9,24.1,28.6,35.4c1.8,1.3,3.7,2.5,5.6,3.8c4.7,3.1,9.4,6.1,13.4,10.7c6.2,7.1,8.9,15.5,8.9,21.7
	C56.5,75.3,55.7,78.4,55,81.6z"/>
<path class="st0" d="M54.2,277.5c0.4-13.1,10.6-17.8,18.7-23.8c8.1-6,14.4-16.4,7.1-33c-10.8-24.4-42.8-44.6-55-69.3
	c-4.7-9.4-5.5-17.8-5.4-25.3c0-7.5,0.8-14.6-1.2-23.2C17.2,97.8,1.5,72.5-1.9,67l-4.2,34.6c5.4,11.5,7.8,22.5,6.6,30.8
	c-0.9,6.4-3.9,11.4-2.4,19.4c2.5,13.2,16,28.9,28,42.3c12,13.4,25.3,29.5,26.9,42.2c2,16.7-17.7,15.1-20.8,28.3
	c-2.5,10.7,6.4,28.9,4.6,40.1c-1.6,10.6-12.1,12.7-21.9,14.3c-11.7,1.9-23.4,3.7-35.1,5.6l13.3,15.2c8.4-5.2,23.6-1.2,37.3,1.9
	c1.6,0.4,3.1,0.7,4.7,1l29.2-25.4C60.8,304.2,53.8,288.7,54.2,277.5"/>
</svg>
