<svg width="575" height="355" viewBox="0 0 375 255" fill="none" xmlns="http://www.w3.org/2000/svg">
<path d="M75.553 132.391C67.0398 129.228 57.442 131.861 52.2155 139.877C46.9889 147.893 47.0462 161.17 53.0422 169.637C78.4139 205.463 110.334 145.316 75.553 132.391Z" fill="#E30512"/>
<path d="M9.85048 44.4971C7.54006 37.6583 1.56243 32.0561 -5.2747 31.2412C-12.1098 30.4262 -19.305 34.9759 -21.0711 41.909C-28.5447 71.2548 19.2886 72.4301 9.85048 44.4971Z" fill="#E30512"/>
<path d="M46.0398 101.686C43.7294 94.8467 37.7518 89.2446 30.9167 88.4296C24.0796 87.6147 16.8864 92.1644 15.1203 99.0975C7.64671 128.443 55.48 129.619 46.0419 101.686" fill="#E30512"/>
<path d="M-15.5806 154.838C-12.5887 156.943 -8.80489 157.267 -5.24205 157.121C-2.0578 156.992 1.32086 156.444 3.6538 154.206C5.03923 152.877 5.92738 151.057 6.47992 149.167C7.12864 146.951 7.34965 144.592 7.12659 142.268C6.93218 140.243 6.39397 138.227 5.37485 136.48C4.36187 134.744 2.90481 133.321 1.29222 132.19C-3.41867 128.885 -9.75443 128.112 -14.7518 130.698C-24.1163 135.546 -24.28 148.72 -15.5827 154.836" fill="#E30512"/>
<path d="M120.127 117.243C121.52 115.153 121.211 112.016 119.513 110.126C118.725 109.248 117.659 108.619 116.525 108.506C112.966 108.154 109.559 113.31 111.427 116.668C113.259 119.963 118.08 120.315 120.129 117.243" fill="#E30512"/>
<path d="M-0.166819 254.072C2.78823 254.172 5.67984 253.195 8.28904 251.793C11.3055 250.171 14.2564 247.552 14.5634 243.988C14.7251 242.112 14.1193 240.238 13.3355 238.525C11.6882 234.921 8.88047 231.518 5.15186 230.789C-0.715258 229.64 -10.0409 233.627 -11.1296 240.382C-12.2142 247.11 -6.46369 253.861 -0.166819 254.072Z" fill="#E30512"/>
<path d="M27.2467 63.2179C28.0714 61.9812 27.8872 60.124 26.8824 59.006C26.4158 58.486 25.7855 58.1153 25.1143 58.0478C23.0085 57.8389 20.9928 60.8918 22.0978 62.878C23.1825 64.8273 26.0352 65.0361 27.2467 63.2179Z" fill="#E30512"/>
<path d="M69.7545 95.3097C70.5792 94.073 70.395 92.2158 69.3902 91.0978C68.9236 90.5778 68.2933 90.2071 67.6221 90.1396C65.5163 89.9307 63.5006 92.9837 64.6057 94.9698C65.6903 96.9191 68.543 97.1279 69.7545 95.3097Z" fill="#E30512"/>
<path d="M38.1746 15.1966C40.5035 11.7055 39.9857 6.46369 37.1473 3.30634C35.8315 1.84028 34.049 0.789878 32.154 0.601501C26.2071 0.0117997 20.518 8.62797 23.6368 14.2363C26.6962 19.7401 34.753 20.3278 38.1726 15.1966" fill="#E30512"/>
<path d="M57.2337 74.2605C64.2059 79.1624 73.0178 79.9159 81.3202 79.5781C88.7385 79.2771 96.6112 77.9994 102.046 72.7863C105.274 69.6924 107.343 65.4498 108.632 61.0455C110.142 55.8856 110.658 50.3879 110.14 44.9762C109.688 40.2586 108.433 35.5594 106.06 31.4909C103.702 27.4449 100.307 24.134 96.5498 21.4988C85.5748 13.8019 70.8138 11.996 59.1696 18.024C37.3526 29.3184 36.972 60.0115 57.2317 74.2605" fill="#E30512"/>
<path d="M237.364 -13.9877C230.525 -14.772 223.28 -11.5184 219.826 -5.35519C216.372 0.807998 217.411 9.65965 222.693 14.3732C245.048 34.3247 265.3 -10.7833 237.364 -13.9877Z" fill="#E30512"/>
<path d="M326.438 27.9284C328.748 34.7672 334.726 40.3694 341.563 41.1843C348.398 41.9993 355.593 37.4496 357.359 30.5165C364.833 1.17072 317 -0.0045891 326.438 27.9284Z" fill="#E30512"/>
<path d="M368.454 229.829C368.781 231.164 369.685 232.304 370.789 233.064C372.753 234.42 375.379 234.588 377.47 233.549C378.944 232.818 380.204 231.387 380.304 229.667C380.505 226.227 376.48 223.092 373.469 222.894C370.32 222.687 367.698 226.749 368.456 229.827" fill="#E30512"/>
<path d="M364.085 188.783C363.261 190.02 363.445 191.877 364.45 192.995C364.916 193.513 365.547 193.886 366.218 193.953C368.324 194.162 370.339 191.109 369.234 189.123C368.15 187.174 365.297 186.967 364.085 188.783Z" fill="#E30512"/>
<path d="M127.234 57.1019C125.84 59.1925 126.149 62.3294 127.847 64.2193C128.635 65.0956 129.702 65.7263 130.835 65.8389C134.394 66.1911 137.799 61.0333 135.933 57.6773C134.101 54.3827 129.28 54.0306 127.231 57.1019" fill="#E30512"/>
</svg>
