<svg width="575" height="474" viewBox="0 0 375 474" fill="none" xmlns="http://www.w3.org/2000/svg">
<path d="M-18.2293 68.1877C-14.6734 74.4339 -7.76902 78.7778 -0.930775 78.2787C5.90603 77.7799 12.078 71.9673 12.4895 64.8545C14.2325 34.7495 -32.7515 42.6695 -18.2293 68.1877Z" fill="#E30512"/>
<path d="M-24.6082 26.2233C-21.0523 32.4695 -14.1479 36.8135 -7.30968 36.3143C-0.472872 35.8155 5.69908 30.0029 6.11056 22.8901C7.85361 -7.21487 -39.1304 0.705131 -24.6082 26.2233Z" fill="#E30512"/>
<path d="M318.273 492.526C320.878 481.731 317.683 469.183 309.432 461.943C301.181 454.703 288.051 453.962 280.045 461.18C246.167 491.725 307.627 536.62 318.273 492.526Z" fill="#E30512"/>
<path d="M38.471 365.872C43.8961 363.946 48.2755 358.765 48.8158 352.752C49.3581 346.738 45.6069 340.321 40.0386 338.652C16.476 331.59 16.3082 373.743 38.469 365.872" fill="#E30512"/>
<path d="M-6.65491 365.211C2.71161 361.884 10.2711 352.942 11.2043 342.559C12.1395 332.178 5.66462 321.1 -3.94747 318.219C-44.6244 306.028 -44.9171 378.801 -6.65695 365.211" fill="#E30512"/>
<path d="M34.7222 280.394C41.1889 278.097 46.4073 271.924 47.052 264.757C47.6966 257.591 43.2272 249.943 36.5926 247.955C8.51149 239.539 8.30888 289.778 34.7222 280.396" fill="#E30512"/>
<path d="M96.5512 455.643C91.9999 454.07 87.0578 455.098 82.5576 456.646C78.5364 458.03 74.4108 460.029 72.2047 463.808C70.895 466.052 70.3916 468.743 70.3404 471.395C70.279 474.503 70.8132 477.634 71.9019 480.547C72.8494 483.086 74.2368 485.486 76.1421 487.351C78.035 489.206 80.3884 490.484 82.84 491.328C90.0005 493.793 98.3581 492.372 103.847 487.122C114.128 477.285 109.773 460.215 96.5512 455.643Z" fill="#E30512"/>
<path d="M339.981 319.098C334.188 328.337 333.49 340.147 334.104 351.3C334.652 361.266 336.398 371.864 342.871 379.288C346.714 383.697 351.922 386.578 357.312 388.416C363.626 390.568 370.326 391.396 376.893 390.835C382.618 390.343 388.301 388.773 393.194 385.689C398.057 382.624 402.002 378.148 405.113 373.168C414.205 358.624 416.039 338.855 408.424 323.078C394.154 293.516 356.813 292.252 339.981 319.1" fill="#E30512"/>
<path d="M264.1 358.368C265.364 358.049 266.433 357.121 267.137 355.979C268.389 353.939 268.499 351.185 267.47 348.968C266.746 347.406 265.358 346.052 263.719 345.915C260.441 345.638 257.533 349.807 257.402 352.967C257.265 356.272 261.183 359.105 264.1 358.368Z" fill="#E30512"/>
<path d="M369.701 268.964C370.966 268.645 372.036 267.717 372.738 266.574C373.991 264.535 374.101 261.781 373.072 259.564C372.347 258.001 370.96 256.648 369.321 256.511C366.042 256.234 363.134 260.403 363.003 263.562C362.866 266.867 366.785 269.701 369.701 268.964Z" fill="#E30512"/>
<path d="M35.5454 392.87C36.7384 393.76 38.5025 393.603 39.5482 392.569C40.0332 392.089 40.375 391.432 40.4261 390.728C40.5837 388.519 37.6409 386.342 35.7705 387.464C33.9348 388.566 33.7916 391.559 35.5454 392.868" fill="#E30512"/>
<path d="M21.4946 382.978C22.6877 383.869 24.4517 383.711 25.4974 382.677C25.9824 382.196 26.3242 381.541 26.3753 380.836C26.5329 378.627 23.5901 376.45 21.7197 377.572C19.8841 378.674 19.7408 381.667 21.4946 382.976" fill="#E30512"/>
<path d="M5.05319 111.623C6.24626 112.514 8.01028 112.356 9.05601 111.322C9.54101 110.843 9.88277 110.186 9.93393 109.482C10.0915 107.272 7.14874 105.096 5.2783 106.22C3.44265 107.321 3.2994 110.315 5.05319 111.623Z" fill="#E30512"/>
<path d="M321.027 360.244C322.02 360.985 323.487 360.854 324.357 359.994C324.76 359.595 325.044 359.05 325.087 358.464C325.218 356.628 322.771 354.818 321.215 355.751C319.689 356.667 319.57 359.156 321.029 360.246" fill="#E30512"/>
<path d="M362.022 289.947C365.423 285.868 365.439 279.179 362.249 274.786C360.767 272.749 358.645 271.17 356.267 270.665C348.804 269.076 340.485 279.148 343.716 286.673C346.888 294.054 357.026 295.94 362.022 289.947Z" fill="#E30512"/>
<path d="M305.135 306.909C306.328 307.799 308.092 307.642 309.138 306.608C309.623 306.126 309.965 305.471 310.016 304.767C310.174 302.558 307.231 300.381 305.36 301.503C303.525 302.605 303.381 305.6 305.135 306.907" fill="#E30512"/>
<path d="M318.756 323.505C315.801 323.404 312.912 324.381 310.3 325.784C307.284 327.405 304.333 330.024 304.026 333.589C303.864 335.464 304.47 337.338 305.254 339.052C306.901 342.656 309.709 346.059 313.436 346.788C319.303 347.936 328.628 343.95 329.717 337.195C330.802 330.466 325.051 323.716 318.754 323.505" fill="#E30512"/>
</svg>
