<svg width="375" height="970" viewBox="0 0 375 970" fill="none" xmlns="http://www.w3.org/2000/svg">
<path d="M476.993 963.007C254.598 1185.4 -99.1868 1192.21 -313.199 978.199C-527.21 764.187 -520.41 410.41 -298.007 188.007C-75.603 -34.3969 504.225 -267.248 718.236 -53.2362C932.248 160.775 699.389 740.611 476.993 963.007Z" fill="#E30512"/>
<path d="M431.67 880.347C245.999 1066.02 -49.3643 1071.7 -228.035 893.027C-406.707 714.356 -401.035 419.001 -215.356 233.322C-29.6764 47.643 454.394 -146.745 633.066 31.9263C811.737 210.597 617.341 694.676 431.67 880.347Z" fill="#3B0073"/>
<path d="M386.375 797.688C237.428 946.635 0.503402 951.187 -142.827 807.856C-286.158 664.525 -281.598 427.592 -132.66 278.654C16.2791 129.715 404.609 -26.242 547.94 117.089C691.271 260.419 535.322 648.742 386.375 797.688Z" fill="#E30512"/>
<path d="M341.026 715.03C228.812 827.244 50.3004 830.676 -57.6817 722.694C-165.664 614.711 -162.232 436.2 -50.0178 323.986C62.1963 211.772 354.77 94.278 462.752 202.26C570.734 310.242 453.24 602.816 341.026 715.03Z" fill="#3B0073"/>
</svg>
