<svg width="1440" height="1065" viewBox="0 0 1440 1065" fill="none" xmlns="http://www.w3.org/2000/svg">
<rect width="1440" height="65" fill="#3B0073"/>
<path d="M-270 905C-120.984 841.85 -158 837 -158 787C-120 769 -160.004 640 -136.011 666C-122.004 719 -136.011 611 -136.011 595C12.0075 433.059 247.71 244.189 431.989 242C666.025 248.982 648.025 499.982 864.025 561.982C1036.02 586.982 1374.87 407.732 1553.03 453.981C1770.61 510.466 1729.08 809.391 1797.39 963.583C1878.6 1146.97 1959.81 1330.3 2041.01 1513.69L1942.34 1617.1C1820.38 1555.77 1725.08 1401.74 1679.99 1263C1546.52 1118.01 1613.02 806.982 1422.02 765.982C1220.02 733.982 1191.99 805 789.989 917C570.658 978.107 453.989 853 313.989 837C178.831 831.84 156.489 861.269 -27.5111 942.5C-188.011 1036.5 -310.822 1126.63 -450.625 1196.22C-666.126 1303.43 -908.143 1309.87 -1074.78 1217.69L-1074.78 1019L-270 905Z" fill="#E21F26"/>
<path d="M532.327 -345.785C676.91 -343.796 778.576 -236.996 823.703 -103.947C844.148 -43.6616 703.036 -52.1577 727.498 5.5C762.998 54.5001 846.754 169.989 1003.04 188.997C1077.04 197.997 1168.79 183.746 1306.04 134.997C1397.54 102.497 1549 47.5003 1652.5 -0.499715C1714.07 -73.444 1562.74 -253.615 1643.1 -291.846C1666.55 -302.983 1689.84 -310.874 1712.96 -316.128L1506.31 -485.278C1477.9 -477.008 1449.2 -466.045 1421.45 -454.107C1334.03 -416.525 1244.87 -368.661 1159.1 -362.766C1074.17 -356.934 1002.48 -393.702 946.274 -444.197C890.066 -494.692 846.596 -558.858 796.789 -616.3C759.96 -658.753 718.603 -698.243 664.837 -717.917C624.302 -732.755 592.998 -605 592.998 -605L143.998 -250.977C204.014 -268.863 264.026 -286.792 324.043 -304.678C394.126 -325.599 465.458 -346.688 532.307 -345.761" fill="#E21F26"/>
</svg>
