<svg width="575" height="873" viewBox="0 0 375 873" fill="none" xmlns="http://www.w3.org/2000/svg">
<mask id="mask0_232_1976" style="mask-type:alpha" maskUnits="userSpaceOnUse" x="0" y="0" width="375" height="873">
<rect width="375" height="873" fill="#E21F26"/>
</mask>
<g mask="url(#mask0_232_1976)">
<rect width="575" height="1073" fill="#E21F26"/>
<path d="M668.57 114.786C634.71 156.256 592.031 185.732 548.553 196.292C515.081 204.42 473.283 166.144 441.663 186.53C397.537 226.252 396.962 276.225 350.435 402.173C332.109 472.397 292.281 564.029 238.697 593.103C169.138 627.17 135.678 550.947 62.9073 566.132C8.7208 585.355 -62.7711 690.087 -122.039 704.042C-194.423 721.087 -228.39 627.209 -272.171 592.631C-324.229 551.499 -376.277 510.385 -428.335 469.253L-415.418 423.769C-370.268 422.896 -318.614 453.263 -284.015 486.903C-222.59 508.736 -194.06 610.008 -131.846 592.535C-67.8008 570.731 -70.5546 545.625 29.7945 450.827C84.5448 399.105 137.987 417.712 181.421 400.792C221.766 381.448 223.763 369.39 265.07 317.231C297.531 264.961 319.56 219.638 349.731 177.706C396.248 113.086 466.071 73.8601 529.054 75.1225L559.71 133.26L668.57 114.786Z" fill="#3B0073"/>
<path d="M20.1102 900.466C59.0826 915.164 50.7419 881.501 94.808 928.638C114.774 949.996 124.016 932.344 145.166 951.843C169.296 965.629 226.204 998.105 295.201 976.48C327.872 966.241 363.571 942.911 411.778 896.534C443.917 865.616 496.891 813.935 531.118 774.259C543.079 732.08 445.649 685.325 472.043 654.116C479.747 645.018 488 637.307 496.68 630.733L378.189 599.061C367.867 607.898 357.93 617.918 348.575 628.167C319.108 660.439 290.856 697.343 256.079 716.044C221.643 734.559 184.683 732.741 151.604 722.249C118.525 711.757 88.1899 693.133 56.475 678.521C33.0284 667.727 8.24747 659.029 -17.976 660.972C-37.7471 662.435 -86.0476 664.559 -86.0476 664.559L-206.937 897.689C-185.206 878.845 -104.106 917.247 -82.376 898.403C-57.0078 876.384 -47.6955 915.581 -19.5455 903.317" fill="#3B0073"/>
<path d="M652 -133.534C607.841 -103.265 558.594 -86.9866 513.901 -89.0849C479.494 -90.7013 450.152 -139.191 414.074 -128.523C360.555 -102.82 379.117 -62.9249 299.036 44.8462C261.694 107.078 164.523 191.703 104.924 204.527C28.5904 217.649 17.9252 135.091 -56.178 129.191C-113.584 132.393 -211.653 212.782 -272.453 209.5C-346.708 205.492 -352.893 105.85 -385.178 60.3516C-423.561 6.23566 -461.941 -47.8608 -500.324 -101.977L-475.133 -141.99C-431.561 -130.126 -390.537 -86.453 -366.799 -44.4377C-313.997 -6.20624 -315.111 99.0013 -250.493 99.7371C-182.901 96.832 -178.48 71.9649 -55.5144 9.22692C11.5755 -25.0029 -33.4038 -85.0685 13.0361 -89.0849C57.1937 -96.2972 118.723 -50.6538 173.036 -89.0849C218.891 -130.111 287.588 -131.104 328.337 -162.855C391.155 -211.778 469.194 -229.776 529.278 -210.846L542.339 -146.432L652 -133.534Z" fill="#3B0073"/>
</g>
</svg>
