<svg width="1440" height="1249" viewBox="0 0 1440 1249" fill="none" xmlns="http://www.w3.org/2000/svg">
<path d="M1460 524.247C1460 948.8 1128.81 1292.97 720.274 1292.97C311.738 1292.97 -19.4512 948.8 -19.4512 524.247C-19.4512 99.6944 311.738 -676 720.274 -676C1128.81 -676 1460 99.6944 1460 524.247Z" fill="#3B0073"/>
<path d="M1355.15 493.672C1355.15 858.042 1070.91 1153.44 720.272 1153.44C369.637 1153.44 85.3955 858.056 85.3955 493.672C85.3955 129.288 369.637 -536.454 720.272 -536.454C1070.91 -536.454 1355.15 129.301 1355.15 493.672Z" fill="#E30512"/>
<path d="M1250.31 463.087C1250.31 767.288 1013 1013.9 720.265 1013.9C427.532 1013.9 190.226 767.301 190.226 463.087C190.226 158.872 427.532 -396.918 720.265 -396.918C1013 -396.918 1250.31 158.885 1250.31 463.087Z" fill="#3B0073"/>
<path d="M1145.47 432.495C1145.47 676.527 955.111 874.344 720.279 874.344C485.448 874.344 295.089 676.514 295.089 432.495C295.089 188.475 485.448 -257.402 720.279 -257.402C955.111 -257.402 1145.47 188.462 1145.47 432.495Z" fill="#E30512"/>
<path d="M1040.63 401.911C1040.63 585.762 897.201 734.809 720.284 734.809C543.367 734.809 399.943 585.762 399.943 401.911C399.943 218.061 543.367 -117.864 720.284 -117.864C897.201 -117.864 1040.63 218.061 1040.63 401.911Z" fill="#3B0073"/>
</svg>
