<svg width="67" height="68" viewBox="0 0 67 68" fill="none" xmlns="http://www.w3.org/2000/svg">
<path d="M48.9615 0H18.0385C13.2559 0.00519228 8.67075 1.9357 5.28899 5.36793C1.90723 8.80017 0.00511592 13.4538 0 18.3077V49.6923C0.00511592 54.5462 1.90723 59.1998 5.28899 62.6321C8.67075 66.0643 13.2559 67.9948 18.0385 68H48.9615C53.7441 67.9948 58.3293 66.0643 61.711 62.6321C65.0928 59.1998 66.9949 54.5462 67 49.6923V18.3077C66.9949 13.4538 65.0928 8.80017 61.711 5.36793C58.3293 1.9357 53.7441 0.00519228 48.9615 0ZM33.5 49.6923C30.442 49.6923 27.4527 48.772 24.91 47.0477C22.3674 45.3234 20.3857 42.8726 19.2154 40.0052C18.0452 37.1378 17.739 33.9826 18.3356 30.9386C18.9321 27.8946 20.4047 25.0985 22.567 22.9039C24.7294 20.7093 27.4844 19.2147 30.4836 18.6092C33.4828 18.0037 36.5916 18.3145 39.4169 19.5022C42.2421 20.6899 44.6569 22.7012 46.3558 25.2818C48.0547 27.8624 48.9615 30.8964 48.9615 34C48.9573 38.1605 47.3269 42.1494 44.4283 45.0914C41.5296 48.0333 37.5993 49.688 33.5 49.6923ZM52.8269 18.3077C52.0624 18.3077 51.3151 18.0776 50.6794 17.6465C50.0438 17.2155 49.5483 16.6028 49.2558 15.8859C48.9632 15.1691 48.8867 14.3803 49.0358 13.6193C49.185 12.8583 49.5531 12.1592 50.0937 11.6106C50.6343 11.0619 51.323 10.6883 52.0728 10.5369C52.8226 10.3855 53.5998 10.4632 54.3061 10.7602C55.0124 11.0571 55.6161 11.5599 56.0409 12.2051C56.4656 12.8502 56.6923 13.6087 56.6923 14.3846C56.6923 15.4251 56.2851 16.4229 55.5602 17.1586C54.8353 17.8944 53.8521 18.3077 52.8269 18.3077ZM43.8077 34C43.8077 36.0691 43.2032 38.0917 42.0705 39.8121C40.9379 41.5325 39.3281 42.8734 37.4446 43.6652C35.5611 44.457 33.4886 44.6642 31.4891 44.2605C29.4896 43.8569 27.6529 42.8605 26.2114 41.3974C24.7698 39.9343 23.7881 38.0703 23.3904 36.0409C22.9926 34.0116 23.1968 31.9081 23.9769 29.9965C24.7571 28.0849 26.0783 26.4511 27.7734 25.3015C29.4684 24.152 31.4613 23.5385 33.5 23.5385C36.2338 23.5385 38.8556 24.6407 40.7886 26.6026C42.7217 28.5645 43.8077 31.2254 43.8077 34Z" fill="#3B0073"/>
</svg>
