<svg width="61" height="64" viewBox="0 0 61 64" fill="none" xmlns="http://www.w3.org/2000/svg">
<path d="M61 18.963V30.8148C61 31.4435 60.7528 32.0464 60.3128 32.4909C59.8728 32.9355 59.2761 33.1852 58.6538 33.1852C53.7528 33.1967 48.9222 32.0061 44.5769 29.7156V41.4815C44.5769 47.4538 42.2287 53.1814 38.0488 57.4045C33.8689 61.6275 28.1997 64 22.2885 64C16.3772 64 10.708 61.6275 6.52814 57.4045C2.34824 53.1814 0 47.4538 0 41.4815C0 30.5481 7.89187 20.883 18.3587 18.9985C18.6963 18.9379 19.043 18.9528 19.3744 19.0421C19.7057 19.1315 20.0136 19.2932 20.2765 19.5158C20.5393 19.7384 20.7506 20.0165 20.8955 20.3305C21.0405 20.6445 21.1155 20.9868 21.1154 21.3333V33.9822C21.1155 34.4308 20.9897 34.8703 20.7524 35.2495C20.5152 35.6287 20.1763 35.9321 19.7751 36.1244C18.8268 36.5788 18.0165 37.282 17.4288 38.1605C16.8411 39.0391 16.4975 40.0609 16.4339 41.1193C16.3702 42.1778 16.5888 43.2341 17.0669 44.1781C17.545 45.1221 18.2651 45.9192 19.152 46.4862C20.0388 47.0533 21.0601 47.3695 22.1092 47.4019C23.1582 47.4343 24.1967 47.1818 25.1162 46.6705C26.0358 46.1593 26.8027 45.4081 27.337 44.4954C27.8713 43.5827 28.1534 42.5419 28.1538 41.4815V2.37037C28.1538 1.74171 28.401 1.1388 28.841 0.694265C29.281 0.249735 29.8778 0 30.5 0H42.2308C42.853 0 43.4498 0.249735 43.8898 0.694265C44.3297 1.1388 44.5769 1.74171 44.5769 2.37037C44.5808 6.14113 46.0651 9.75633 48.7042 12.4227C51.3433 15.089 54.9216 16.5887 58.6538 16.5926C59.2761 16.5926 59.8728 16.8423 60.3128 17.2869C60.7528 17.7314 61 18.3343 61 18.963Z" fill="#3B0073"/>
</svg>
