<svg width="375" height="856" viewBox="0 0 375 856" fill="none" xmlns="http://www.w3.org/2000/svg">
<path d="M631.225 757.877C417.531 1060.44 8.26286 1139.03 -282.896 933.392C-574.054 727.755 -636.846 315.768 -423.152 13.2015C-209.458 -289.365 417.017 -675.489 708.175 -469.853C999.334 -264.216 844.922 455.306 631.225 757.877Z" fill="#E30512"/>
<path d="M601.444 720.446C402.953 1001.49 22.8041 1074.47 -247.636 883.471C-518.076 692.467 -576.406 309.795 -377.914 28.7538C-179.422 -252.288 402.475 -610.939 672.92 -419.932C943.365 -228.925 799.936 439.404 601.444 720.446Z" fill="#3B0073"/>
<path d="M571.659 683.012C388.37 942.528 37.3431 1009.93 -212.383 833.551C-462.109 657.177 -515.969 303.82 -332.68 44.303C-149.391 -215.213 387.93 -546.392 637.661 -370.015C887.392 -193.637 754.945 423.5 571.659 683.012Z" fill="#E30512"/>
<path d="M541.884 645.583C373.8 883.57 51.8862 945.379 -177.126 783.634C-406.138 621.89 -455.53 297.838 -287.447 59.8513C-119.364 -178.135 373.397 -481.844 602.409 -320.1C831.421 -158.355 709.97 407.592 541.884 645.583Z" fill="#3B0073"/>
<path d="M512.099 608.153C359.219 824.615 66.4255 880.834 -141.873 733.719C-350.171 586.604 -395.093 291.866 -242.212 75.4046C-89.3319 -141.057 358.853 -417.293 567.151 -270.178C775.449 -123.063 664.98 391.692 512.099 608.153Z" fill="#E30512"/>
<path d="M482.318 570.721C344.64 765.658 80.9665 816.279 -106.613 683.797C-294.192 551.316 -334.65 285.888 -196.975 90.9565C-59.3004 -103.975 344.316 -352.74 531.895 -220.258C719.475 -87.776 619.993 375.79 482.318 570.721Z" fill="#3B0073"/>
<path d="M452.534 533.286C330.062 706.693 95.5065 751.729 -71.3636 633.874C-238.234 516.018 -274.221 279.904 -151.749 106.498C-29.2774 -66.9087 329.766 -288.205 496.636 -170.35C663.506 -52.4942 575.01 359.875 452.534 533.286Z" fill="#E30512"/>
<path d="M422.756 495.859C315.487 647.74 110.047 687.183 -36.1041 583.961C-182.256 480.738 -213.778 273.935 -106.509 122.054C0.760508 -29.8275 315.232 -223.648 461.384 -120.425C607.535 -17.2029 530.026 343.977 422.756 495.859Z" fill="#3B0073"/>
<path d="M392.971 458.428C300.907 588.78 124.585 622.638 -0.852467 534.045C-126.29 445.452 -153.343 267.963 -61.2764 137.607C30.7905 7.25054 300.686 -159.097 426.123 -70.5043C551.561 18.0886 485.034 328.077 392.971 458.428Z" fill="#E30512"/>
<path d="M363.191 420.997C286.331 529.823 139.125 558.089 34.4014 484.125C-70.3222 410.162 -92.9104 261.984 -16.0461 153.152C60.8182 44.3212 286.142 -94.5505 390.865 -20.5873C495.589 53.376 440.052 312.17 363.191 420.997Z" fill="#3B0073"/>
<path d="M333.417 383.564C271.758 470.865 153.677 493.536 69.6677 434.202C-14.342 374.869 -32.4572 255.999 29.1978 168.703C90.8529 81.4061 271.61 -30.0071 355.62 29.3265C439.629 88.6601 395.075 296.262 333.417 383.564Z" fill="#E30512"/>
<path d="M303.636 346.133C257.184 411.905 168.216 428.987 104.925 384.287C41.6338 339.586 27.9835 250.027 74.436 184.256C120.889 118.484 257.074 34.547 320.365 79.2476C383.656 123.948 350.089 280.362 303.636 346.133Z" fill="#3B0073"/>
</svg>
