<svg width="899" height="787" viewBox="0 0 899 787" fill="none" xmlns="http://www.w3.org/2000/svg">
<path fill-rule="evenodd" clip-rule="evenodd" d="M1122.83 513.55C1137.41 558.061 1163.82 604.201 1214.56 653.294L1194.74 672.7C1141.51 621.191 1113 571.916 1097.18 523.604C1081.5 475.759 1078.48 429.35 1075.55 384.564L1075.52 384.001C1072.56 338.732 1069.66 295.101 1055 250.324C1040.42 205.813 1014 159.673 963.271 110.58C862.331 12.8991 767.899 2.84209 670.378 -7.47404L670.162 -7.49693C571.605 -17.9226 469.964 -28.6746 363.064 -132.123C309.836 -183.632 281.325 -232.907 265.5 -281.218C249.828 -329.063 246.799 -375.471 243.877 -420.257L243.841 -420.822C240.887 -466.09 237.986 -509.722 223.319 -554.498C208.739 -599.009 182.326 -645.149 131.594 -694.243L151.411 -713.648C204.638 -662.14 233.149 -612.864 248.974 -564.553C264.647 -516.708 267.675 -470.3 270.597 -425.514L270.634 -424.949C273.588 -379.681 276.488 -336.049 291.155 -291.273C305.736 -246.762 332.148 -200.622 382.88 -151.528C483.819 -53.8476 578.252 -43.7907 675.772 -33.4746L675.989 -33.4517C774.545 -23.0261 876.187 -12.2739 983.087 91.1744C1036.31 142.683 1064.83 191.958 1080.65 240.27C1096.32 288.115 1099.35 334.524 1102.27 379.31L1102.31 379.873C1105.26 425.142 1108.16 468.773 1122.83 513.55ZM1079.04 551.483C1093.62 595.994 1120.03 642.134 1170.77 691.228L1150.95 710.633C1097.72 659.124 1069.21 609.849 1053.39 561.537C1037.71 513.692 1034.69 467.283 1031.76 422.496L1031.73 421.933C1028.77 376.665 1025.87 333.032 1011.21 288.255C996.628 243.744 970.217 197.603 919.486 148.508C818.547 50.8281 724.114 40.7711 626.594 30.4549L626.377 30.432C527.821 20.0063 426.179 9.25437 319.279 -94.1939C266.051 -145.703 237.54 -194.978 221.715 -243.289C206.043 -291.134 203.015 -337.542 200.093 -382.328L200.056 -382.893C197.102 -428.161 194.201 -471.793 179.534 -516.569C164.954 -561.08 138.542 -607.22 87.8099 -656.314L107.626 -675.719C160.853 -624.21 189.364 -574.935 205.19 -526.624C220.862 -478.779 223.89 -432.371 226.812 -387.585L226.849 -387.02C229.803 -341.752 232.703 -298.12 247.371 -253.344C261.951 -208.833 288.363 -162.693 339.095 -113.599C440.035 -15.9186 534.467 -5.86177 631.988 4.45436L632.204 4.47725C730.761 14.9029 832.402 25.6551 939.303 129.104C992.529 180.613 1021.04 229.889 1036.86 278.201C1052.53 326.046 1055.56 372.454 1058.48 417.24L1058.52 417.806C1061.47 463.075 1064.37 506.706 1079.04 551.483ZM1035.26 589.412C1049.84 633.923 1076.25 680.063 1126.98 729.157L1107.17 748.562C1053.94 697.053 1025.43 647.778 1009.6 599.466C993.93 551.622 990.902 505.215 987.979 460.43L987.943 459.863C984.989 414.594 982.088 370.963 967.421 326.186C952.841 281.675 926.428 235.535 875.697 186.441C774.757 88.761 680.324 78.7041 582.804 68.3879L582.587 68.365C484.031 57.9393 382.389 47.1873 275.489 -56.2609C222.262 -107.77 193.751 -157.045 177.925 -205.356C162.253 -253.201 159.225 -299.61 156.303 -344.397L156.266 -344.96C153.312 -390.228 150.412 -433.86 135.744 -478.636C121.164 -523.147 94.7514 -569.287 44.0198 -618.381L63.8361 -637.786C117.064 -586.278 145.575 -537.002 161.4 -488.691C177.072 -440.846 180.1 -394.437 183.022 -349.651L183.059 -349.087C186.013 -303.819 188.914 -260.187 203.581 -215.411C218.161 -170.9 244.574 -124.76 295.305 -75.6661C396.245 22.0144 490.678 32.0712 588.198 42.3874L588.415 42.4102C686.971 52.8359 788.613 63.5881 895.513 167.036C948.74 218.545 977.251 267.82 993.076 316.132C1008.75 363.976 1011.78 410.383 1014.7 455.169L1014.74 455.735C1017.69 501.004 1020.59 544.635 1035.26 589.412ZM991.464 627.34C1006.04 671.851 1032.46 717.991 1083.19 767.085L1063.37 786.49C1010.14 734.981 981.634 685.706 965.808 637.394C950.136 589.55 947.108 543.142 944.186 498.356L944.149 497.791C941.195 452.523 938.295 408.891 923.628 364.114C909.047 319.603 882.635 273.463 831.903 224.37C730.963 126.689 636.531 116.632 539.01 106.316L538.794 106.293C440.237 95.8675 338.596 85.1155 231.696 -18.3328C178.468 -69.8415 149.957 -119.117 134.132 -167.428C118.459 -215.273 115.431 -261.682 112.509 -306.468L112.472 -307.032C109.518 -352.3 106.618 -395.932 91.9508 -440.708C77.3705 -485.219 50.9581 -531.359 0.226422 -580.453L20.0425 -599.858C73.27 -548.349 101.781 -499.074 117.606 -450.763C133.279 -402.918 136.307 -356.509 139.229 -311.723L139.266 -311.159C142.22 -265.891 145.12 -222.259 159.787 -177.483C174.368 -132.972 200.78 -86.8316 251.512 -37.7381C352.452 59.9424 446.884 69.9995 544.404 80.3157L544.621 80.3384C643.177 90.7642 744.819 101.516 851.719 204.965C904.947 256.473 933.458 305.749 949.283 354.06C964.955 401.905 967.983 448.313 970.906 493.099L970.943 493.663C973.896 538.932 976.797 582.563 991.464 627.34Z" fill="#E21F26"/>
</svg>
