<svg width="565" height="1160" viewBox="0 0 565.1 1160">
<style type="text/css">
	.st0{fill:#E21E26;}
</style>
<path class="st0" d="M767.2,810.6c9.2-71.3-18.5-187.5-73-300.2c-35.3-73.1-80.1-143.3-120.8-214.9
	c-40.7-71.6-79.5-150.1-92.5-214.2c-15.6-77.3,9.7-116.7,0.3-188.9c-12.1-93.4-79.7-227.7-82.9-312.8c-2.7-73.9,43.6-86.9,86.2-97.5
	c35.9-9,72.7-24.3,77.6-77l99,136.9c14.5,42.2,28.9,84.5,43.3,126.8c16.9,49.3,34,99.5,41.4,142.9c16,93.9-16.7,141.6-67,147.8
	c-22.8,2.8-49.1-1.6-70.3,4.3c-21.2,5.9-37.3,23.9-34.6,62.5c3.2,45.8,32.7,112,66.9,169.2c34.2,57.2,73.4,108.4,111,161.3
	c37.6,52.9,75.5,110.6,100.8,169.7c7.4,17.2,13.4,33.8,18.3,49.8L767.2,810.6L767.2,810.6z"/>
<path class="st0" d="M486.2,806c-3.7-40.6-0.7-74.9-7.7-118.4c-7.1-43.5-27.5-101.2-60.6-145.8c-30.2-40.7-61.9-59-93-86.3
	c-76.4-66.9-157.2-204.3-180.9-307.5c-10.4-45.1-10.6-82.2-10.9-118.6c-0.3-36.4-0.7-73.8-11.5-119.2
	c-10.8-45.4-33.7-101-65.8-145.2L-25.8-50.8c16.7,28.2,29.4,59.7,36.5,87c9.4,35.7,10.8,65.6,11.4,94.1c0.6,28.5,0.6,56.8,7.4,90.8
	c9.8,48.8,34.1,108.1,66.2,161.8c32.1,53.7,71.8,101.2,108.2,129.6c28.1,22,53.6,32.4,80.8,50.2c27.2,17.9,59,46.4,84,87.8
	c30.5,50.5,41,102.6,45,144.3c1.8,18,88,298.8,159.5,365.3l121.3-45.3C590.6,1035,492.2,871.6,486.2,806"/>
<path class="st0" d="M90.1-185C103-92.2,250.8-127.1,224.9-78.2c-25.9,48.9-39.9,127.1,8.1,238.9
	c70.5,164.1,222.3,282.4,298.7,446.9c29.3,63,41.9,121.7,50.1,174.6s13,103.8,30.6,163.1c10.3,34.9,26.3,74.2,46.2,110.4l53.5-121
	c-34.4-76.9-56.5-153-60.8-212.7c-3.3-45.9,3.1-83.9-11.9-139c-24.9-91.2-96.7-191.6-160.1-277C416,220.9,344.4,117,324.1,28.7
	C297.2-88,436.3,6.7,434.1-89c-1.8-77.3,117.5,68.9,112-12c-5.1-75.9,34-3.3,72-22c45.1-22.2,56.9-39.8,102-62l-258-48
	c0,0-42.9,71.9-102,60c-50,0-75.8-59-82.5-60l-123.5-40c28.8,91.2-101-39.4-90,40"/>
</svg>
