<svg width="1440" height="439" viewBox="0 0 1440 439" fill="none" xmlns="http://www.w3.org/2000/svg">
<path d="M387.803 402.006C386.569 430.688 403.823 456.994 433.015 464.918C462.207 472.842 502.079 459.758 521.71 433.489C604.779 322.336 392.843 284.825 387.803 402.006Z" fill="#E30512"/>
<path d="M1189.67 179.103C1164.19 198.022 1148.84 230.603 1154.68 260.309C1160.51 290.008 1189.28 313.958 1220.68 311.965C1353.55 303.535 1293.75 101.831 1189.67 179.103Z" fill="#E30512"/>
<path d="M325.419 282.668C317.776 280.51 308.643 284.49 304.611 291.437C302.736 294.66 301.882 298.479 302.646 301.998C305.048 313.044 323.868 318.278 332.15 309.393C340.277 300.68 336.646 285.836 325.417 282.662" fill="#E30512"/>
<path d="M1333.7 120.185C1332.21 112.557 1324.52 106.912 1316.46 107.146C1312.72 107.254 1308.91 108.542 1306.09 111.052C1297.23 118.911 1301 137.647 1312.7 139.995C1324.19 142.298 1335.9 131.387 1333.7 120.185Z" fill="#E30512"/>
<path d="M257.322 513.64C265.282 487.902 258.978 460.666 249.887 436.023C241.766 414.004 230.267 391.568 209.302 380.29C196.858 373.593 182.087 371.496 167.587 371.902C150.6 372.377 133.565 376.173 117.793 382.993C104.045 388.942 91.1323 397.285 81.2054 408.382C71.3302 419.407 64.6749 432.838 60.404 446.702C47.9308 487.197 56.8563 533.35 86.3107 562.509C141.498 617.144 234.175 588.439 257.324 513.646" fill="#E30512"/>
<path d="M1084.78 416.134C1083.1 396.756 1072.2 379.206 1057.32 366.722C1030.79 344.46 991.297 337.883 956.908 349.201C932.673 357.174 909.933 375.365 904.138 399.491C892.541 447.725 945.968 498.408 991.273 506.017C1038.65 513.974 1088.64 460.804 1084.78 416.134Z" fill="#E30512"/>
<path d="M1411.55 188.62C1414.11 181.094 1410.41 172.385 1403.43 168.767C1400.2 167.088 1396.3 166.431 1392.64 167.328C1381.16 170.152 1374.94 188.697 1383.71 196.357C1392.33 203.872 1407.78 199.683 1411.55 188.62Z" fill="#E30512"/>
<path d="M1421.3 144.423C1422.3 141.481 1420.86 138.087 1418.14 136.676C1416.87 136.024 1415.35 135.761 1413.92 136.115C1409.44 137.219 1407.01 144.456 1410.44 147.446C1413.8 150.383 1419.84 148.745 1421.3 144.429" fill="#E30512"/>
<path d="M39.0705 377.279C57.3909 363.679 68.425 340.251 64.2279 318.901C60.0289 297.544 39.3496 280.334 16.7811 281.765C-78.7435 287.826 -35.7545 432.838 39.0725 377.285" fill="#E30512"/>
<path d="M137.031 19.5544C117.228 20.0297 98.7206 30.5288 82.537 42.3229C68.082 52.8579 53.8815 65.7784 49.2769 82.5645C46.5417 92.5321 47.4918 103.021 50.2005 112.765C53.373 124.174 58.9302 134.859 66.454 143.991C73.0143 151.952 81.1525 158.797 90.7699 163.003C100.33 167.179 111.082 168.624 121.747 168.351C152.902 167.556 184.546 150.966 200.581 124.345C230.624 74.4493 194.583 18.1712 137.026 19.5625" fill="#E30512"/>
<path d="M137.632 319.781C145.275 321.94 154.408 317.96 158.44 311.013C160.309 307.791 161.169 303.971 160.405 300.451C158.002 289.405 139.179 284.179 130.901 293.057C122.774 301.769 126.404 316.613 137.634 319.788" fill="#E30512"/>
<path d="M1318.94 418.714C1334.27 401.944 1340.62 376.953 1332.46 356.871C1324.32 336.793 1300.83 323.883 1279.04 329.563C1186.81 353.598 1256.32 487.21 1318.94 418.714Z" fill="#E30512"/>
<path d="M1190.94 469.714C1206.27 452.944 1212.62 427.953 1204.46 407.871C1196.32 387.793 1172.83 374.883 1151.04 380.563C1058.81 404.598 1128.32 538.21 1190.94 469.714Z" fill="#E30512"/>
<path d="M1401.81 282.308C1376.26 304.81 1362.7 346.021 1371.49 385.305C1380.27 424.581 1413.03 458.327 1446.34 458.433C1587.35 458.886 1506.17 190.405 1401.81 282.308Z" fill="#E30512"/>
<path d="M1319.95 420.714C1335.27 403.945 1341.62 378.954 1333.47 358.872C1325.32 338.794 1301.83 325.883 1280.04 331.563C1187.81 355.599 1257.33 489.21 1319.95 420.714Z" fill="#E30512"/>
</svg>
