<svg width="1440" height="1024" viewBox="0 0 1440 1024" fill="none" xmlns="http://www.w3.org/2000/svg">
<path d="M1122.59 1822.36C667.719 2260.55 -42.8512 2260.93 -464.511 1823.22C-886.17 1385.51 -859.256 675.447 -404.385 237.257C50.4855 -200.934 1223.4 -646.706 1645.06 -208.996C2066.72 228.714 1577.46 1384.17 1122.59 1822.36Z" fill="#3B0073"/>
<path d="M1047.13 1678.46C656.738 2054.53 46.8762 2054.88 -315.022 1679.21C-676.92 1303.53 -653.816 694.122 -263.411 318.033C126.994 -58.0557 1133.65 -440.644 1495.55 -64.9704C1857.45 310.703 1437.52 1302.38 1047.13 1678.46Z" fill="#E30512"/>
<path d="M971.687 1534.56C645.762 1848.54 136.609 1848.82 -165.527 1535.18C-467.664 1221.54 -448.384 712.768 -122.445 398.781C203.494 84.7942 1043.9 -234.596 1346.04 79.0411C1648.18 392.678 1297.61 1220.59 971.687 1534.56Z" fill="#3B0073"/>
<path d="M896.261 1390.67C634.802 1642.54 226.385 1642.76 -15.99 1391.15C-258.365 1139.55 -242.882 731.416 18.5634 479.558C280.008 227.7 954.2 -28.5473 1196.57 223.054C1438.95 474.655 1157.72 1138.79 896.261 1390.67Z" fill="#E30512"/>
<path d="M820.816 1246.77C623.836 1436.52 316.115 1436.69 133.515 1247.14C-49.0851 1057.59 -37.4259 750.091 159.554 560.335C356.533 370.579 864.478 177.529 1047.08 367.08C1229.68 556.63 1017.8 1057.01 820.816 1246.77Z" fill="#3B0073"/>
</svg>
