<?xml version="1.0" encoding="utf-8"?>
<!-- Generator: Adobe Illustrator 28.0.0, SVG Export Plug-In . SVG Version: 6.00 Build 0)  -->
<svg version="1.1" id="Layer_1" xmlns="http://www.w3.org/2000/svg" xmlns:xlink="http://www.w3.org/1999/xlink" x="0px" y="0px"
	 viewBox="0 0 103 128" style="enable-background:new 0 0 103 128;" xml:space="preserve">
<style type="text/css">
	.st0{fill:#FFDD00;}
	.st1{fill:#3B0073;}
</style>
<path class="st0" d="M95.5,97.6c-11.4,26.1-41.1,37.7-66.2,25.8C4.2,111.5-6.9,80.7,4.5,54.5C15.9,28.4,57.2-9.6,82.3,2.2
	C107.4,14.1,106.9,71.4,95.5,97.6z"/>
<path class="st1" d="M57,58l23.5-27.5h-5.6L54.5,54.4L38.3,30.5H19.5l24.6,36.1L19.5,95.5h5.6l21.5-25.2l17.2,25.2h18.8L57,58L57,58
	z M49.4,67l-2.5-3.6L27.1,34.7h8.5l16,23.1l2.5,3.6l20.8,30h-8.5L49.4,67L49.4,67z"/>
</svg>
