<?xml version="1.0" encoding="utf-8"?>
<!-- Generator: Adobe Illustrator 28.0.0, SVG Export Plug-In . SVG Version: 6.00 Build 0)  -->
<svg version="1.1" id="Layer_1" xmlns="http://www.w3.org/2000/svg" xmlns:xlink="http://www.w3.org/1999/xlink" x="0px" y="0px"
	 viewBox="0 0 103 128" style="enable-background:new 0 0 103 128;" xml:space="preserve">
<style type="text/css">
	.st0{fill:#FFDD00;}
	.st1{fill:#3B0073;}
</style>
<path class="st0" d="M95.5,97.6c-11.4,26.1-41.1,37.7-66.2,25.8C4.2,111.5-6.9,80.7,4.5,54.5C15.9,28.4,57.2-9.6,82.3,2.2
	C107.4,14.1,106.9,71.4,95.5,97.6z"/>
<path class="st1" d="M51,29c-18.8,0-34,15.3-34,34.2c0,17.1,12.6,31.3,28.9,33.8V72.2h-8.4v-9h8.4v-6c0-9.9,4.8-14.2,13-14.2
	c3.9,0,6,0.3,7,0.4v7.8h-5.6c-3.5,0-4.7,3.3-4.7,7v4.9h10.2l-1.4,9h-8.8V97C72.2,94.7,85,80.5,85,63.2C85,44.3,69.8,29,51,29z"/>
</svg>
