<?xml version="1.0" encoding="utf-8"?>
<!-- Generator: Adobe Illustrator 28.0.0, SVG Export Plug-In . SVG Version: 6.00 Build 0)  -->
<svg version="1.1" id="Layer_1" xmlns="http://www.w3.org/2000/svg" xmlns:xlink="http://www.w3.org/1999/xlink" x="0px" y="0px"
	 viewBox="0 0 104 132" style="enable-background:new 0 0 104 132;" xml:space="preserve">
<style type="text/css">
	.st0{fill:#FFDD00;}
	.st1{fill:#3B0073;}
</style>
<path class="st0" d="M101.7,69.3c6.5,27.7-10.4,54.9-37.8,60.7c-27.4,5.8-54.8-12-61.3-39.7C-3.9,62.5,6.5,7.1,33.8,1.4
	S95.2,41.5,101.7,69.3z"/>
<path class="st1" d="M81.5,52v11.9c0,0.6-0.2,1.2-0.7,1.7c-0.4,0.4-1,0.7-1.7,0.7c-4.9,0-9.7-1.2-14.1-3.5v11.8
	c0,6-2.3,11.7-6.5,15.9c-4.2,4.2-9.8,6.6-15.8,6.6c-5.9,0-11.6-2.4-15.8-6.6c-4.2-4.2-6.5-10-6.5-15.9c0-10.9,7.9-20.6,18.4-22.5
	c0.3-0.1,0.7,0,1,0c0.3,0.1,0.6,0.3,0.9,0.5c0.3,0.2,0.5,0.5,0.6,0.8c0.1,0.3,0.2,0.7,0.2,1V67c0,0.4-0.1,0.9-0.4,1.3
	c-0.2,0.4-0.6,0.7-1,0.9c-0.9,0.5-1.8,1.2-2.3,2c-0.6,0.9-0.9,1.9-1,3c-0.1,1.1,0.2,2.1,0.6,3.1c0.5,0.9,1.2,1.7,2.1,2.3
	c0.9,0.6,1.9,0.9,3,0.9c1,0,2.1-0.2,3-0.7c0.9-0.5,1.7-1.3,2.2-2.2c0.5-0.9,0.8-2,0.8-3V35.4c0-0.6,0.2-1.2,0.7-1.7
	c0.4-0.4,1-0.7,1.7-0.7h11.7c0.6,0,1.2,0.2,1.7,0.7c0.4,0.4,0.7,1,0.7,1.7c0,3.8,1.5,7.4,4.1,10.1c2.6,2.7,6.2,4.2,9.9,4.2
	c0.6,0,1.2,0.2,1.7,0.7C81.3,50.7,81.5,51.3,81.5,52z"/>
</svg>
