<?xml version="1.0" encoding="utf-8"?>
<!-- Generator: Adobe Illustrator 28.0.0, SVG Export Plug-In . SVG Version: 6.00 Build 0)  -->
<svg version="1.1" id="Layer_1" xmlns="http://www.w3.org/2000/svg" xmlns:xlink="http://www.w3.org/1999/xlink" x="0px" y="0px"
	 viewBox="0 0 112 121" style="enable-background:new 0 0 112 121;" xml:space="preserve">
<style type="text/css">
	.st0{fill:#FFDD00;}
	.st1{fill:#3B0073;}
</style>
<path class="st0" d="M102,41.2c16.8,23,11.8,54.6-11.1,70.6C68,127.9,35.8,122.2,19,99.2c-16.8-23-28.9-78-6-94
	C36-10.8,85.2,18.3,102,41.2z"/>
<path class="st1" d="M70.5,26H39.5c-4.8,0-9.4,1.9-12.7,5.4c-3.4,3.4-5.3,8.1-5.3,12.9v31.4c0,4.9,1.9,9.5,5.3,12.9
	c3.4,3.4,8,5.4,12.7,5.4h30.9c4.8,0,9.4-1.9,12.7-5.4c3.4-3.4,5.3-8.1,5.3-12.9V44.3c0-4.9-1.9-9.5-5.3-12.9
	C79.8,27.9,75.2,26,70.5,26z M55,75.7c-3.1,0-6-0.9-8.6-2.6c-2.5-1.7-4.5-4.2-5.7-7c-1.2-2.9-1.5-6-0.9-9.1c0.6-3,2.1-5.8,4.2-8
	c2.2-2.2,4.9-3.7,7.9-4.3c3-0.6,6.1-0.3,8.9,0.9c2.8,1.2,5.2,3.2,6.9,5.8c1.7,2.6,2.6,5.6,2.6,8.7c0,4.2-1.6,8.1-4.5,11.1
	C63,74,59.1,75.7,55,75.7z M74.3,44.3c-0.8,0-1.5-0.2-2.1-0.7c-0.6-0.4-1.1-1-1.4-1.8c-0.3-0.7-0.4-1.5-0.2-2.3
	c0.1-0.8,0.5-1.5,1.1-2c0.5-0.5,1.2-0.9,2-1.1s1.5-0.1,2.2,0.2c0.7,0.3,1.3,0.8,1.7,1.4c0.4,0.6,0.7,1.4,0.7,2.2c0,1-0.4,2-1.1,2.8
	C76.3,43.9,75.4,44.3,74.3,44.3z M65.3,60c0,2.1-0.6,4.1-1.7,5.8c-1.1,1.7-2.7,3.1-4.6,3.9s-4,1-6,0.6c-2-0.4-3.8-1.4-5.3-2.9
	c-1.4-1.5-2.4-3.3-2.8-5.4c-0.4-2-0.2-4.1,0.6-6c0.8-1.9,2.1-3.5,3.8-4.7c1.7-1.1,3.7-1.8,5.7-1.8c2.7,0,5.4,1.1,7.3,3.1
	C64.2,54.6,65.3,57.2,65.3,60z"/>
</svg>
